<svg xmlns="http://www.w3.org/2000/svg" xmlns:xlink="http://www.w3.org/1999/xlink" width="375" height="676.012" viewBox="0 0 375 676.012"><defs><style>.a{fill:none}.c{clip-path:url(#a)}.d{fill:#1d8e8d;opacity:.08}.e{fill:#fff}</style><clipPath id="a"><rect width="375" height="676.012" class="a" transform="translate(0 39)"/></clipPath></defs><g><g class="c"><g transform="translate(-451.652 -68.85) translate(451.652 29.85) translate(-182.221 -10.128)"><rect width="234.346" height="745.109" class="d" transform="translate(31.113 197.505) rotate(-45)"/><path d="M690.049,196.01V153.53H668.906V125.119H651.413V153.53H633.67L606.288,66.267c-2.358-8.761-9.4-7.674-9.4-7.674h-113c-7.26-.021-5.8,5.931-5.8,5.931v3.366L477.939,195.3a42.2,42.2,0,0,0-7.832,9.282c-19.85,29.361-2.386,61.159-2.386,61.159s17.542,32.505,51.348,33.542c31.877.979,45.468-12.5,53.049-22.259,10.018-12.891,16.849-30.076,12.7-53.778-3.766-21.494-22.781-39.508-40.194-45.2a69.667,69.667,0,0,0-45.5.765V80.466h87.091l21,63.517c7.16,17.878-.457,24.288-.457,24.288l-4.573,3.873-20.822,18.614c-3.88,2.773-.514,6.438-.514,6.438C599.657,218.583,591,256.226,591,256.226h48.069c-.986-6.717,2.38-19.465,2.38-19.465,5.938-26.174,31.876-28.868,31.876-28.868C692.136,207.493,690.049,196.01,690.049,196.01Zm-165.15.143a40.773,40.773,0,1,1-40.773,40.773A40.776,40.776,0,0,1,524.9,196.153Z" class="e" transform="translate(-214.318 156.66)"/><path d="M531.4,79.874a44.667,44.667,0,1,0,44.667,44.667A44.67,44.67,0,0,0,531.4,79.874Zm0,71.12a26.178,26.178,0,1,1,26.174-26.174A26.175,26.175,0,0,1,531.4,150.994Z" class="e" transform="translate(-53.821 287.709)"/></g></g></g></svg>