<svg xmlns="http://www.w3.org/2000/svg" width="53.02" height="46.442" viewBox="0 0 53.02 46.442"><defs><style>.a{fill:#fefefe;}</style></defs><g transform="translate(-64.081 -246.07)"><path class="a" d="M504.7,84.962V76.8H500.64V71.34h-3.361V76.8H493.87l-5.261-16.767c-.453-1.683-1.807-1.475-1.807-1.475H465.09c-1.4,0-1.115,1.14-1.115,1.14v.647l-.027,24.48a8.109,8.109,0,0,0-1.5,1.783c-3.814,5.641-.459,11.751-.459,11.751s3.371,6.246,9.866,6.445c6.125.188,8.736-2.4,10.193-4.277a12.5,12.5,0,0,0,2.44-10.333,12.052,12.052,0,0,0-7.723-8.684,13.386,13.386,0,0,0-8.742.147v-18.9h16.734l4.035,12.2c1.376,3.435-.088,4.667-.088,4.667l-.879.744-4,3.577a.8.8,0,0,0-.1,1.237c3.614,4.109,1.95,11.342,1.95,11.342h9.236a12.942,12.942,0,0,1,.457-3.74,7.286,7.286,0,0,1,6.125-5.547C505.1,87.168,504.7,84.962,504.7,84.962Zm-31.732.027a7.834,7.834,0,1,1-7.834,7.834A7.835,7.835,0,0,1,472.971,84.989Z" transform="translate(-396.539 187.52)"/><path class="a" d="M495.318,79.874a8.582,8.582,0,1,0,8.582,8.582A8.583,8.583,0,0,0,495.318,79.874Zm0,13.665a5.03,5.03,0,1,1,5.029-5.029A5.029,5.029,0,0,1,495.318,93.539Z" transform="translate(-386.799 195.473)"/></g></svg>