<svg xmlns="http://www.w3.org/2000/svg" width="23.754" height="23.771" viewBox="0 0 23.754 23.771"><defs><style>.a{fill:#177675;}.b{fill:#1a8d8c;}</style></defs><g transform="translate(-209.663 -83.882)"><g transform="translate(209.663 83.882)"><path class="a" d="M212.335,94.829a9.248,9.248,0,1,1,16.654,6.4,8.921,8.921,0,0,1-8.549,3.71,8.807,8.807,0,0,1-5.23-2.446c-.172-.161-.255-.155-.411.009-.478.5-.965.991-1.468,1.466-.179.169-.148.252.013.4a11.92,11.92,0,0,0,5.547,2.985c.6.141,1.22.182,1.825.3h1.611c.507-.078,1.017-.139,1.52-.238a11.874,11.874,0,0,0,9.513-10.364,1.825,1.825,0,0,1,.058-.237V94.708c-.126-.615-.187-1.24-.341-1.85a11.879,11.879,0,0,0-12.5-8.935,11.864,11.864,0,0,0-10.913,11.513h2.651Z" transform="translate(-209.663 -83.882)"/><path class="b" d="M211.338,114.753h.243c.249,0,.5,0,.764,0-.028.031-.045.052-.065.071q-.6.6-1.2,1.206c-.047.047-.064.054-.118,0-.247-.258-.5-.507-.755-.759l-.516-.516h.132c.261,0,.521,0,.782,0Z" transform="translate(-209.677 -100.181)"/><path class="b" d="M211.334,109.492c.079,0,.169,0,.243,0,.249,0,.5,0,.764,0v.827c-.613.006-2.195.02-2.656.015-.006-.393,0-.438,0-.842h.132c.261,0,.521,0,.782,0Z" transform="translate(-209.673 -97.402)"/><path class="a" d="M211.334,112.069c.079,0,.169,0,.243,0,.249,0,.5,0,.764,0v.827c-.613.006-2.195.02-2.656.015-.006-.393,0-.438,0-.842h.132c.261,0,.521,0,.782,0Z" transform="translate(-209.673 -98.763)"/><path class="b" d="M234.008,100.708c0,.816.009,1.631-.006,2.446a.476.476,0,0,0,.271.488c1.373.8,2.733,1.619,4.106,2.419.216.126.23.222.1.422-.242.371-.464.756-.679,1.144-.086.155-.159.169-.309.079q-2.644-1.577-5.3-3.143a.3.3,0,0,1-.165-.3q.006-3.081,0-6.163c0-.163.031-.243.218-.239q.774.016,1.549,0c.192,0,.215.083.214.243C234,98.974,234.007,99.841,234.008,100.708Z" transform="translate(-221.472 -91.264)"/></g></g></svg>