<svg xmlns="http://www.w3.org/2000/svg" width="23.061" height="23.771" viewBox="0 0 23.061 23.771"><defs><style>.a{fill:#177675;}.b{fill:#1a8d8c;}</style></defs><g transform="translate(-142.196 -83.881)"><path class="a" d="M170.03,89.994a.569.569,0,0,1,.234.188q3.657,3.657,7.314,7.313a2.058,2.058,0,0,1,.637,1.533q-.007,5.255,0,10.509a1.263,1.263,0,0,1-.655,1.193.945.945,0,0,1-.474.133l-3.65,0a.438.438,0,0,1-.081-.015q0-1.875.008-3.75c0-.367-.006-.735-.009-1.1,0-1.9,0-3.8.008-5.7a.646.646,0,0,0-.213-.5c-2.129-2.121-4.3-4.3-6.428-6.423.112-.1.155-.141.231-.216q1.444-1.45,2.89-2.9C169.917,90.178,170.023,90.121,170.03,89.994Z" transform="translate(-12.958 -3.23)"/><path class="b" d="M142.2,101.307q0-2.473,0-4.947c0-.23.007-.46.013-.69a1.891,1.891,0,0,1,.572-1.337q1.135-1.131,2.266-2.268,3.869-3.87,7.737-7.742a1.318,1.318,0,0,1,.837-.437,1.237,1.237,0,0,1,1.02.4q.711.716,1.424,1.43c.28.281.561.559.839.842.063.064.15.111.168.211-.007.127-.113.184-.189.26q-1.443,1.451-2.89,2.9c-.075.076-.376.348-.449.421q-3.153,3.15-6.3,6.305a.549.549,0,0,0-.18.24l.017,1.227v4.68c.212,0,.424,0,.635,0h12.3a1.072,1.072,0,0,0,.383-.026c0,.367.009.735.009,1.1q0,1.875-.008,3.75c-.129,0-.257.007-.386.007H147.5c-.147,0-.294,0-.442,0l-.329.015c-1.076,0-2.153-.024-3.228.01a1.265,1.265,0,0,1-1.3-1.3c.005-.46,0-.92,0-1.38C142.2,104.972,142.2,101.407,142.2,101.307Z"/></g></svg>