<svg xmlns="http://www.w3.org/2000/svg" xmlns:xlink="http://www.w3.org/1999/xlink" width="375" height="676.012" viewBox="0 0 375 676.012"><defs><style>.a{fill:none;}.c{clip-path:url(#a);}.d{fill:#1d8e8d;opacity:0.08}.e{fill:#fff;}</style><clipPath id="a"><rect class="a" width="375" height="676.012" transform="translate(0 39)"/></clipPath></defs><g class="b" transform="translate(-451.652 -68.85)"><g class="c" transform="translate(451.652 29.85)"><g transform="translate(-182.221 -10.128)"><rect class="d" width="234.346" height="745.109" transform="translate(31.113 197.505) rotate(-45)"/><g transform="translate(-285.424 200.062)"><path class="e" d="M530.693,195.921s-9.345-46.407,17.707-83.851,63.276-47.232,63.276-47.232S686.957,43.467,742.3,91.3c0,0,46.865,39.078,27.89,91.831,0,0-8.029,19.231-36.078,28.895,0,0-14.285-54.935-37.616-56.66,0,0,22.113,40.505,18.9,62.611,0,0-30.869,4.725-63.983.63,0,0-3.568,1.573-2.681-23.47,0,0-.4-12.033-23.3-9.227,0,0-6.768.416-6.443,17.561,0,0-.257,6.6-.693,11.042,0,0-17.852-.88-24.3-3.464,0,0-1.857,1.143-.6-13.051,0,0,4.149-16.453-5.21-18.164l-19.654-3.27s-3,1.767-4.33,22.722l-.519,5.154S540.128,205.3,530.693,195.921Z" transform="translate(0 0)"/><path class="e" d="M529.5,113.951s-2.591,7.225,11.984,12.192l70.564,24.2s45.9,13.453,114.927,18.178c0,0,38.33,4.115,56.771-8.6,0,0,32.206-19.141,37.5-52.033,0,0,3.283-18.566-22.909-31.534,0,0-7.33-3.582-14.825,13.114,0,0-20.526,32.989-51.534,40.755,0,0-39.071,10.37-90.514,2.646,0,0-32.075-4.08-57.72-8.791Z" transform="translate(1.111 94.564)"/></g></g></g></g></svg>