<svg xmlns="http://www.w3.org/2000/svg" width="20.004" height="24" viewBox="0 0 20.004 24"><defs><style>.a{fill:#177675;}.b{fill:#1a8d8c;}</style></defs><g transform="translate(-75.8 -83.881)"><g transform="translate(75.8 83.881)"><path class="a" d="M85.8,121.989H76.53a1.244,1.244,0,0,1-.4-.042.521.521,0,0,1-.333-.534,11.174,11.174,0,0,1,.573-3.52,9.986,9.986,0,0,1,3.051-4.517,9.495,9.495,0,0,1,4.106-2.047,9.912,9.912,0,0,1,11.417,5.83,10.856,10.856,0,0,1,.857,4.246.524.524,0,0,1-.515.575,2.469,2.469,0,0,1-.274.007Z" transform="translate(-75.8 -97.989)"/><path class="b" d="M89.887,83.881a6.218,6.218,0,1,1-6.207,6.214A6.221,6.221,0,0,1,89.887,83.881Z" transform="translate(-79.89 -83.881)"/></g></g></svg>